HIERARCHY
ROOT Hips
{
	OFFSET 0.000000 0.000000 0.000000
	CHANNELS 6 Xposition Yposition Zposition Xrotation Yrotation Zrotation
	JOINT LeftUpLeg_virtual
	{
		OFFSET 0.000000 0.000000 0.000000
		CHANNELS 3 Xrotation Yrotation Zrotation
		JOINT LeftUpLeg
		{
			OFFSET 11.394100 -6.187798 -0.413800
			CHANNELS 3 Xrotation Yrotation Zrotation
			JOINT LeftLeg
			{
				OFFSET 0.430247 -32.302673 3.732800
				CHANNELS 3 Xrotation Yrotation Zrotation
				JOINT LeftFoot
				{
					OFFSET -0.430247 -48.264931 -6.423300
					CHANNELS 3 Xrotation Yrotation Zrotation
					JOINT LeftToeBase
					{
						OFFSET 4.230900 -16.068199 23.438400
						CHANNELS 3 Xrotation Yrotation Zrotation
						JOINT LeftToe_End
						{
							OFFSET 4.510700 0.695400 19.974600
							CHANNELS 3 Xrotation Yrotation Zrotation
							End Site
							{
								OFFSET 0 0 0
							}
						}
					}
				}
			}
		}
	}
	JOINT RightUpLeg_virtual
	{
		OFFSET 0.000000 0.000000 0.000000
		CHANNELS 3 Xrotation Yrotation Zrotation
		JOINT RightUpLeg
		{
			OFFSET -11.333700 -6.187798 -0.413800
			CHANNELS 3 Xrotation Yrotation Zrotation
			JOINT RightLeg
			{
				OFFSET -0.430392 -32.302628 3.733000
				CHANNELS 3 Xrotation Yrotation Zrotation
				JOINT RightFoot
				{
					OFFSET 0.430392 -48.264973 -6.423500
					CHANNELS 3 Xrotation Yrotation Zrotation
					JOINT RightToeBase
					{
						OFFSET -4.230900 -16.068199 23.438400
						CHANNELS 3 Xrotation Yrotation Zrotation
						JOINT RightToe_End
						{
							OFFSET -4.510700 0.695400 19.974600
							CHANNELS 3 Xrotation Yrotation Zrotation
							End Site
							{
								OFFSET 0 0 0
							}
						}
					}
				}
			}
		}
	}
	JOINT Spine_virtual
	{
		OFFSET 0.000000 0.000000 0.000000
		CHANNELS 3 Xrotation Yrotation Zrotation
		JOINT Spine
		{
			OFFSET -0.002400 12.777504 0.315300
			CHANNELS 3 Xrotation Yrotation Zrotation
			JOINT Spine1
			{
				OFFSET -0.002067 5.816869 0.032633
				CHANNELS 3 Xrotation Yrotation Zrotation
				JOINT Spine1_split
				{
					OFFSET -0.002067 5.816869 0.032633
					CHANNELS 3 Xrotation Yrotation Zrotation
					JOINT Spine2
					{
						OFFSET -0.002067 5.816869 0.032633
						CHANNELS 3 Xrotation Yrotation Zrotation
						JOINT Neck_virtual
						{
							OFFSET 0.000000 0.000000 0.000000
							CHANNELS 3 Xrotation Yrotation Zrotation
							JOINT Neck
							{
								OFFSET -0.003700 21.199493 -0.826900
								CHANNELS 3 Xrotation Yrotation Zrotation
								JOINT Head
								{
									OFFSET 0.000000 20.442200 4.834800
									CHANNELS 3 Xrotation Yrotation Zrotation
									JOINT HeadTop_End
									{
										OFFSET 0.000000 34.668396 4.968400
										CHANNELS 3 Xrotation Yrotation Zrotation
										End Site
										{
											OFFSET 0 0 0
										}
									}
								}
							}
						}
						JOINT LeftShoulder_virtual
						{
							OFFSET 0.000000 0.000000 0.000000
							CHANNELS 3 Xrotation Yrotation Zrotation
							JOINT LeftShoulder
							{
								OFFSET 3.288150 8.794197 -1.372250
								CHANNELS 3 Xrotation Yrotation Zrotation
								JOINT LeftShoulder_split
								{
									OFFSET 3.288150 8.794197 -1.372250
									CHANNELS 3 Xrotation Yrotation Zrotation
									JOINT LeftArm
									{
										OFFSET 11.953299 -2.279007 -0.146200
										CHANNELS 3 Xrotation Yrotation Zrotation
										JOINT LeftForeArm
										{
											OFFSET 18.448900 0.000000 0.000000
											CHANNELS 3 Xrotation Yrotation Zrotation
											JOINT LeftHand
											{
												OFFSET 29.527798 0.000000 0.000000
												CHANNELS 3 Xrotation Yrotation Zrotation
												End Site
												{
													OFFSET 0 0 0
												}
											}
										}
									}
								}
							}
						}
						JOINT RightShoulder_virtual
						{
							OFFSET 0.000000 0.000000 0.000000
							CHANNELS 3 Xrotation Yrotation Zrotation
							JOINT RightShoulder
							{
								OFFSET -3.249400 8.794197 -1.372250
								CHANNELS 3 Xrotation Yrotation Zrotation
								JOINT RightShoulder_split
								{
									OFFSET -3.249400 8.794197 -1.372250
									CHANNELS 3 Xrotation Yrotation Zrotation
									JOINT RightArm
									{
										OFFSET -11.953299 -2.279007 -0.146200
										CHANNELS 3 Xrotation Yrotation Zrotation
										JOINT RightForeArm
										{
											OFFSET -18.448900 0.000000 0.000000
											CHANNELS 3 Xrotation Yrotation Zrotation
											JOINT RightHand
											{
												OFFSET -29.527802 0.000000 0.000000
												CHANNELS 3 Xrotation Yrotation Zrotation
												End Site
												{
													OFFSET 0 0 0
												}
											}
										}
									}
								}
							}
						}
					}
				}
			}
		}
	}
}
MOTION
Frames: 5
Frame Time: 0.03333333
10.411884 74.059120 -4.303852 0.000000 0.000000 0.000000 22.296236 -83.516623 23.880720 -43.645223 -15.556516 28.232377 47.758496 -10.080410 10.978565 -6.953460 -3.952261 -26.520214 -0.028285 1.089820 -4.810545 0.000000 0.000000 0.000000 11.508150 -82.493707 14.593114 -23.180713 13.586705 -31.646039 46.165580 13.064491 -10.340077 -15.494518 -1.764556 33.164257 -12.448960 2.328948 0.438869 0.000000 0.000000 0.000000 25.683323 -78.532340 26.342819 1.383855 4.359387 2.881736 0.345317 3.383663 1.210273 1.576262 -1.421200 0.789263 0.000000 0.000000 0.000000 0.877786 2.941672 0.960056 -3.115111 7.729215 -1.139982 2.722122 40.727325 -4.945176 0.000000 0.000000 0.000000 0.896490 3.410660 1.083332 1.544983 11.532683 -10.477972 -3.492166 -2.144183 -2.018891 -10.168669 10.351678 -65.834411 -179.110059 -63.892690 -176.740926 0.000000 0.000000 0.000000 1.888386 3.581907 0.631820 1.252984 8.934089 10.401396 0.411303 3.436443 2.338802 -13.118920 35.184162 47.671401 -179.036648 70.751034 178.924141 0.000000 0.000000 0.000000 
10.382272 73.297630 -4.353134 0.000000 0.000000 0.000000 14.668678 -83.560842 16.324198 -43.532559 -14.702945 27.494838 46.692006 -11.622334 12.282212 -7.680926 -5.935495 -26.532952 -1.512891 1.342276 -4.716792 0.000000 0.000000 0.000000 6.914191 -81.194311 9.886398 -21.708790 11.410163 -31.395934 47.034581 11.497223 -10.223259 -15.322338 -3.176366 32.110324 -12.239918 1.818702 2.629351 0.000000 0.000000 0.000000 22.903299 -77.782481 23.186672 1.002874 4.574300 2.789202 0.266985 3.503683 1.213163 1.553353 -2.296521 0.813741 0.000000 0.000000 0.000000 0.719984 3.089999 0.934628 -2.313556 7.142325 -1.275272 3.117390 39.392850 -4.664437 0.000000 0.000000 0.000000 0.876077 3.453090 1.103341 1.364793 11.399109 -9.294920 -2.899309 -1.730145 -3.150627 -8.399099 7.746999 -66.151010 -179.764268 -63.526148 -177.268121 0.000000 0.000000 0.000000 1.624440 3.674640 0.657835 1.304258 8.353357 9.586711 0.174171 4.295022 2.434779 -11.867157 33.854297 47.480873 -178.303769 69.478617 178.072498 0.000000 0.000000 0.000000 
10.237768 76.199883 -4.528984 0.000000 0.000000 0.000000 7.162792 -80.949872 8.873480 -43.387571 -13.075765 25.744405 40.680163 -14.498116 12.570871 -4.123080 -10.259732 -27.723769 -2.063343 1.310680 -3.595708 0.000000 0.000000 0.000000 5.126011 -78.256940 8.088435 -20.880419 8.719973 -30.318670 45.812739 10.418325 -10.031519 -10.179259 -2.797942 31.954599 -16.512742 0.735261 5.260378 0.000000 0.000000 0.000000 17.620073 -75.850692 17.736234 0.635837 4.575545 2.685966 0.076588 3.514491 1.120359 1.221182 -3.091231 0.859822 0.000000 0.000000 0.000000 0.566042 3.121186 0.842605 -1.492319 6.589805 -1.376188 3.430705 37.391782 -3.931547 0.000000 0.000000 0.000000 0.751767 3.415512 1.037589 1.152610 10.759425 -7.783255 -1.881836 -1.065453 -3.818965 -6.662981 3.788382 -64.565771 179.811888 -62.851298 -177.827486 0.000000 0.000000 0.000000 1.304530 3.627037 0.605395 1.289400 7.781379 8.618678 -0.155971 4.908594 2.383630 -10.091832 31.340463 46.796631 -178.140049 67.124777 177.768760 0.000000 0.000000 0.000000 
10.028314 82.037369 -4.879089 0.000000 0.000000 0.000000 4.397782 -76.306955 6.081906 -42.555432 -10.592258 23.664982 31.341587 -16.977024 11.153404 2.798597 -15.197002 -28.139963 -1.434217 1.064375 -1.930115 0.000000 0.000000 0.000000 4.423620 -74.121957 7.401621 -20.780637 6.007557 -28.595492 43.357652 10.034079 -9.887171 -2.402269 -0.935754 32.427836 -22.776056 -0.970954 7.507976 0.000000 0.000000 0.000000 12.116432 -72.786157 12.422329 0.413003 4.361995 2.599708 -0.135312 3.427257 0.966554 0.735693 -3.150177 0.941905 0.000000 0.000000 0.000000 0.410291 3.043201 0.721676 -0.854234 6.099045 -1.494881 3.542675 34.910910 -2.923612 0.000000 0.000000 0.000000 0.549473 3.321376 0.926385 0.989004 9.659878 -6.375757 -0.752089 -0.340271 -4.047426 -5.160504 -0.811724 -61.648741 179.764336 -62.122381 -178.168053 0.000000 0.000000 0.000000 1.022927 3.477546 0.491330 1.194758 7.309970 7.601741 -0.643281 5.081606 2.136624 -8.005432 27.970079 45.487175 -178.407984 64.736820 177.876308 0.000000 0.000000 0.000000 
9.679720 89.389824 -5.342911 0.000000 0.000000 0.000000 4.135702 -70.971389 5.669641 -40.657845 -7.087032 21.719320 21.923748 -16.772798 8.701827 10.052845 -17.684818 -25.752223 0.044901 0.753895 -0.636425 0.000000 0.000000 0.000000 3.910395 -69.137839 6.950405 -21.121711 3.140441 -26.194655 40.944477 9.271329 -9.625274 3.725640 0.667745 31.503496 -26.094984 -2.742585 8.909962 0.000000 0.000000 0.000000 7.736775 -68.962938 8.552109 0.378399 3.976382 2.559387 -0.245740 3.264964 0.789848 0.300544 -2.514854 0.946789 0.000000 0.000000 0.000000 0.257778 2.868551 0.601136 -0.575519 5.642618 -1.664226 3.402210 32.272214 -1.876299 0.000000 0.000000 0.000000 0.385867 3.171155 0.796898 0.953542 8.218449 -5.561438 -0.014078 0.152542 -3.885628 -3.949302 -5.376200 -58.220369 -179.942946 -61.592891 -178.313864 0.000000 0.000000 0.000000 0.867191 3.285410 0.367697 1.052869 7.063050 6.671786 -0.979703 4.975536 1.554398 -6.048719 24.164757 43.883521 -178.878816 63.165241 178.212285 0.000000 0.000000 0.000000 
